<!-- icon666.com - MILLIONS vector ICONS FREE --><svg version="1.1" id="Capa_1" xmlns="http://www.w3.org/2000/svg" xmlns:xlink="http://www.w3.org/1999/xlink" x="0px" y="0px" viewBox="0 0 512 512" style="enable-background:new 0 0 512 512;" xml:space="preserve"><path style="" d="M410.083,221.046c101.404,87.942-114.268,254.374-209.895,160.183 C75.086,258.006,6.864,349.748,6.864,215.522s18.521-99.995,160.183-160.183C290.585,2.852,288.445,115.556,410.083,221.046z" fill="#79A1E8"></path><g><path style="" d="M224.889,186.408c24.158,0,43.742-19.584,43.742-43.742l0-138.629l232.468,0l0,138.629 c0,24.158-19.584,43.742-43.742,43.742L224.889,186.408L224.889,186.408z" fill="#D7ECF9"></path><polygon style="" points="224.889,186.408 224.889,186.408 224.889,186.408 " fill="#D7ECF9"></polygon></g><path style="" d="M501.099,4.037H457.63L275.259,186.408l182.097,0c24.158,0,43.742-19.584,43.742-43.742 L501.099,4.037z" fill="#AACFE2"></path><polygon style="" points="390.23,227.252 323.123,163.062 323.123,177.227 373.22,227.252 " fill="#F7931E"></polygon><ellipse style="" cx="221.015" cy="502.679" rx="170.75" ry="9.321" fill="#473CBA"></ellipse><polyline style="" points="373.22,227.252 373.22,454.114 59.485,454.114 59.485,227.252 " fill="#E1F0FA"></polyline><rect x="373.22" y="227.252" style="" width="17.01" height="226.862" fill="#79A1E8"></rect><polygon style="fill: rgb(255, 255, 255);" points="59.485,454.114 214.462,329.751 373.22,454.114 " fill="#FFFFFF"></polygon><polygon style="" points="373.22,227.282 218.242,75.884 59.485,227.24 59.485,227.252 214.462,377 373.22,227.252 " fill="#F9D015"></polygon><rect x="268.63" y="4.038" style="" width="232.467" height="30.556" fill="#F7931E"></rect><polygon style="" points="501.099,4.037 457.63,4.037 427.074,34.594 501.099,34.594 " fill="#F15A24"></polygon><path style="" d="M368.578,69.915c24.158,0,43.742,19.584,43.742,43.742v29.005c0,24.158,19.584,43.742,43.742,43.742 H296.544V70.246L368.578,69.915z" fill="#473CBA"></path><path style="fill: rgb(255, 255, 255);" d="M141.507,69.915c-24.158,0-43.742,19.584-43.742,43.742V264.24L214.463,377l110.374-104.11V113.657 c0-24.158,19.584-43.742,43.742-43.742H141.507z" fill="#FFFFFF"></path><path style="" d="M314.37,69.915L109.096,275.189L214.463,377l110.374-104.11V113.657 c0-24.158,19.584-43.742,43.742-43.742H314.37z" fill="#CFDDF7"></path><path style="" d="M56.763,224.521c-0.841,0.807-1.316,1.922-1.316,3.088v226.505c0,0.015,0.004,0.029,0.004,0.044 c0.01,0.895,0.299,1.805,0.985,2.591c0.813,0.93,2.034,1.403,3.27,1.403h330.522c2.23,0,4.037-1.808,4.037-4.037V227.252 c0-1.135-0.472-2.156-1.225-2.89c-0.009-0.009-0.012-0.018-0.022-0.028l-35.432-33.893l99.769,0.003 c26.388,0,47.78-21.392,47.78-47.78V4.037c0-2.23-1.808-4.037-4.037-4.037H268.63c-2.23,0-4.037,1.808-4.037,4.037v61.84H141.507 c-26.388,0-47.78,21.392-47.78,47.78v75.359L56.763,224.521z M101.802,113.657c0-21.894,17.811-39.705,39.705-39.705l200.348,0.123 c-12.692,8.598-21.055,23.131-21.055,39.582v157.491L214.496,371.419L101.802,262.526V113.657z M328.873,190.442h0.859 l37.643,36.773l-38.502,36.317L328.873,190.442L328.873,190.442z M93.727,200.172v54.552l-28.418-27.459L93.727,200.172z M63.522,236.766l118.125,114.14l-118.125,94.79C63.522,445.697,63.522,236.766,63.522,236.766z M70.967,450.076l116.534-93.513 l24.157,23.342c0.782,0.755,1.793,1.134,2.805,1.134c0.996,0,1.992-0.367,2.77-1.1l24.84-23.43l119.447,93.568L70.967,450.076 L70.967,450.076z M248.013,350.904l121.17-114.295v209.213L248.013,350.904z M386.192,450.076h-8.934V231.29h8.934V450.076z M380.168,223.215h-5.276l-32.82-32.773h3.835L380.168,223.215z M333.021,182.367l-4.148-4.052v-64.658 c0-21.893,17.81-39.703,39.702-39.705h0.013c21.888,0.006,39.694,17.816,39.694,39.705v29.005c0,16.527,8.436,31.122,21.227,39.705 L333.021,182.367L333.021,182.367z M497.062,142.666c0,21.894-17.811,39.705-39.705,39.705h-1.26c-0.012,0-0.023-0.003-0.034-0.003 c-21.893,0-39.704-17.811-39.704-39.705v-29.005c0-26.346-21.434-47.78-47.78-47.78h-0.019h-95.891V38.631h224.394V142.666z M497.062,30.557H272.668V8.075h224.394L497.062,30.557L497.062,30.557z" fill="#4B31AA"></path><rect x="131.622" y="127.711" style="" width="156.448" height="48.299" fill="#F9D015"></rect><polygon style="" points="208.275,176.01 288.069,176.01 288.069,127.712 256.573,127.712 " fill="#DDB510"></polygon><path style="" d="M288.069,180.047H131.622c-2.23,0-4.037-1.808-4.037-4.037v-48.298c0-2.23,1.808-4.037,4.037-4.037 h156.447c2.23,0,4.037,1.808,4.037,4.037v48.298C292.107,178.239,290.299,180.047,288.069,180.047z M135.659,171.972h148.372 v-40.223H135.659V171.972z" fill="#4B31AA"></path><path style="" d="M288.069,206.488H131.622c-2.23,0-4.037-1.808-4.037-4.037c0-2.23,1.808-4.037,4.037-4.037h156.447 c2.23,0,4.037,1.808,4.037,4.037C292.107,204.68,290.299,206.488,288.069,206.488z" fill="#4B31AA"></path><path style="" d="M288.069,233.468H131.622c-2.23,0-4.037-1.808-4.037-4.037s1.808-4.037,4.037-4.037h156.447 c2.23,0,4.037,1.808,4.037,4.037S290.299,233.468,288.069,233.468z" fill="#4B31AA"></path><path style="" d="M288.069,260.449H131.622c-2.23,0-4.037-1.808-4.037-4.037c0-2.23,1.808-4.037,4.037-4.037h156.447 c2.23,0,4.037,1.808,4.037,4.037C292.107,258.641,290.299,260.449,288.069,260.449z" fill="#4B31AA"></path></svg>